<svg width="772" height="196" viewBox="0 0 772 196" fill="none" xmlns="http://www.w3.org/2000/svg">
<path fill-rule="evenodd" clip-rule="evenodd" d="M32.0234 92.1949C113.194 76.3608 44.2278 97.6196 33.3575 109.544C32.4933 110.505 32.0234 111.743 32.0234 113.047V131.406C32.0234 132.774 19.9554 145.187 17.8329 147.012C17.1506 147.631 16.0136 147.175 16.0136 146.295V92.5696C15.2858 54.0105 43.8639 45.6536 100.49 50.6058C111.314 52.0068 93.3488 61.4877 86.0868 61.7484C44.2581 63.2471 32.8724 74.6829 32.0385 85.239C31.7808 88.3993 32.0385 89.8491 32.0385 92.2112" fill="white"/>
<path fill-rule="evenodd" clip-rule="evenodd" d="M100.763 99.8677C100.763 106.824 50.6415 120.491 93.3192 116.94C103.083 116.125 93.0766 127.382 82.0092 133.002C70.7902 138.72 52.9005 144.047 51.8089 144.796C47.9732 147.419 46.351 147.566 69.6835 147.126C99.9748 147.126 114.863 137.124 114.863 109.3V61.0643V59.7773C114.863 50.0357 112.786 53.4893 107.889 58.7185L106.6 60.0217L96.6091 70.2194L26.3843 145.35C25.7172 146.018 26.2175 147.289 27.1423 147.289C30.8264 147.191 42.2728 147.777 44.2285 145.839C59.7532 130.331 100.793 62.286 100.793 88.1061L100.763 99.8677Z" fill="white"/>
<g filter="url(#filter0_d_2155_945)">
<path d="M157.173 128.202H161.121V147.634H157.173V128.202ZM167.807 128.202H173.827L180.435 142.482H180.603V128.202H184.467V147.634H179.091L171.867 132.43H171.699V147.634H167.807V128.202ZM203.756 131.646H198.576V147.634H194.628V131.646H189.448V128.202H203.756V131.646ZM220.86 144.19V147.634H208.736V128.202H220.412V131.618H212.684V136.014H219.852V139.29H212.684V144.19H220.86ZM238.46 144.19V147.634H226.672V128.202H230.62V144.19H238.46ZM255.383 144.19V147.634H243.595V128.202H247.543V144.19H255.383ZM260.519 128.202H264.467V147.634H260.519V128.202ZM270.621 137.918C270.621 134.306 271.433 131.758 273.057 130.218C274.709 128.678 277.117 127.922 280.281 127.922C282.101 127.922 284.313 128.202 285.461 128.622V132.094C284.061 131.562 282.437 131.31 280.561 131.31C276.641 131.31 274.877 132.794 274.877 137.918C274.877 143.294 276.305 144.582 280.365 144.582C281.289 144.582 282.045 144.526 282.633 144.386V139.85H279.245V136.546H286.329V147.074C284.761 147.55 282.353 147.914 280.085 147.914C273.841 147.858 270.705 145.926 270.621 137.918ZM304.877 144.19V147.634H292.753V128.202H304.429V131.618H296.701V136.014H303.869V139.29H296.701V144.19H304.877ZM310.688 128.202H316.708L323.316 142.482H323.484V128.202H327.348V147.634H321.972L314.748 132.43H314.58V147.634H310.688V128.202ZM346.637 131.646H341.457V147.634H337.509V131.646H332.329V128.202H346.637V131.646ZM372.809 142.65H364.801L363.009 147.634H358.949L366.201 128.202H371.493L378.717 147.634H374.517L372.809 142.65ZM365.949 139.346H371.633L369.001 131.702H368.665L365.949 139.346ZM382.335 137.918C382.335 134.306 383.147 131.758 384.771 130.218C386.423 128.678 388.831 127.922 391.995 127.922C393.815 127.922 396.027 128.202 397.175 128.622V132.094C395.775 131.562 394.151 131.31 392.275 131.31C388.355 131.31 386.591 132.794 386.591 137.918C386.591 143.294 388.019 144.582 392.079 144.582C393.003 144.582 393.759 144.526 394.347 144.386V139.85H390.959V136.546H398.043V147.074C396.475 147.55 394.067 147.914 391.799 147.914C385.555 147.858 382.419 145.926 382.335 137.918ZM415.442 147.634L410.71 140.41H408.414V147.634H404.466V128.202H410.766C416.058 128.202 418.27 129.854 418.27 134.278C418.27 137.498 417.094 139.234 414.546 139.99L420.09 147.634H415.442ZM408.414 137.442H410.206C413.258 137.442 414.322 136.882 414.322 134.278C414.322 131.898 413.258 131.366 410.206 131.366H408.414V137.442ZM424.726 128.202H428.674V147.634H424.726V128.202ZM434.828 137.918C434.828 134.334 435.612 131.786 437.208 130.246C438.804 128.706 441.128 127.922 444.152 127.922C445.916 127.922 447.4 128.118 448.632 128.538V131.982C447.344 131.534 445.916 131.31 444.376 131.31C440.652 131.31 439.056 132.962 439.056 137.89C439.056 143.098 440.596 144.47 444.292 144.47C445.944 144.47 447.456 144.218 448.856 143.714V147.102C447.624 147.578 445.916 147.914 444.124 147.914C438.132 147.886 434.912 145.87 434.828 137.918ZM454.36 141.222V128.202H458.308V140.746C458.308 143.434 459.288 144.526 462.34 144.526C465.588 144.526 466.428 143.322 466.428 140.746V128.202H470.348V141.222C470.348 145.898 467.604 147.914 462.312 147.914C456.964 147.914 454.36 146.066 454.36 141.222ZM488.761 144.19V147.634H476.973V128.202H480.921V144.19H488.761ZM504.773 131.646H499.593V147.634H495.645V131.646H490.465V128.202H504.773V131.646ZM509.67 141.222V128.202H513.618V140.746C513.618 143.434 514.598 144.526 517.65 144.526C520.898 144.526 521.738 143.322 521.738 140.746V128.202H525.658V141.222C525.658 145.898 522.914 147.914 517.622 147.914C512.274 147.914 509.67 146.066 509.67 141.222ZM543.259 147.634L538.527 140.41H536.231V147.634H532.283V128.202H538.583C543.875 128.202 546.087 129.854 546.087 134.278C546.087 137.498 544.911 139.234 542.363 139.99L547.907 147.634H543.259ZM536.231 137.442H538.023C541.075 137.442 542.139 136.882 542.139 134.278C542.139 131.898 541.075 131.366 538.023 131.366H536.231V137.442ZM564.302 142.65H556.294L554.502 147.634H550.442L557.694 128.202H562.986L570.21 147.634H566.01L564.302 142.65ZM557.442 139.346H563.126L560.494 131.702H560.158L557.442 139.346ZM586.559 144.19V147.634H574.771V128.202H578.719V144.19H586.559ZM609.857 147.214V143.714C611.117 144.162 613.469 144.526 615.401 144.526C618.061 144.526 618.985 143.854 618.985 142.034C618.985 140.326 618.425 139.878 615.317 139.094C611.061 138.002 610.025 137.078 609.941 133.522C609.941 129.602 612.321 127.894 616.941 127.894C618.957 127.894 620.805 128.174 621.897 128.594V131.898C621.365 131.702 620.637 131.562 619.685 131.422C618.733 131.282 617.865 131.198 617.081 131.198C614.729 131.198 613.805 131.73 613.805 133.438C613.805 134.838 614.225 135.258 617.221 135.986C621.897 137.19 622.821 138.282 622.905 142.118C622.905 146.01 620.665 147.914 615.541 147.914C613.413 147.914 611.117 147.578 609.857 147.214ZM632.954 139.822L625.954 128.202H630.546L634.914 136.154H635.082L639.534 128.202H643.986L636.93 139.738V147.634H632.954V139.822ZM647.587 147.214V143.714C648.847 144.162 651.199 144.526 653.131 144.526C655.791 144.526 656.715 143.854 656.715 142.034C656.715 140.326 656.155 139.878 653.047 139.094C648.791 138.002 647.755 137.078 647.671 133.522C647.671 129.602 650.051 127.894 654.671 127.894C656.687 127.894 658.535 128.174 659.627 128.594V131.898C659.095 131.702 658.367 131.562 657.415 131.422C656.463 131.282 655.595 131.198 654.811 131.198C652.459 131.198 651.535 131.73 651.535 133.438C651.535 134.838 651.955 135.258 654.951 135.986C659.627 137.19 660.551 138.282 660.635 142.118C660.635 146.01 658.395 147.914 653.271 147.914C651.143 147.914 648.847 147.578 647.587 147.214ZM678.712 131.646H673.532V147.634H669.584V131.646H664.404V128.202H678.712V131.646ZM695.817 144.19V147.634H683.693V128.202H695.369V131.618H687.641V136.014H694.809V139.29H687.641V144.19H695.817ZM701.628 128.202H708.012L711.54 139.43H711.708L715.376 128.202H721.592V147.634H717.7V132.038H717.532L713.556 143.826H709.58L705.632 132.038H705.464V147.634H701.628V128.202Z" fill="white"/>
<rect x="520" y="49" width="202.523" height="60.4702" rx="9" stroke="white" stroke-opacity="0.5" stroke-width="2"/>
<path d="M571 92.9239H581.139C582.488 92.9108 583.794 92.7209 585.056 92.3542C586.332 91.9874 587.456 91.4569 588.428 90.7627C589.4 90.0816 590.176 89.2302 590.756 88.2085C591.337 87.1868 591.619 86.008 591.605 84.6719C591.605 83.8205 591.46 83.0281 591.17 82.2945C590.894 81.561 590.502 80.8996 589.995 80.3101C589.516 79.7731 588.907 79.2819 588.167 78.8365C587.427 78.3912 586.659 78.0834 585.861 77.9131V77.8542C586.63 77.5529 587.282 77.232 587.819 76.8914C588.37 76.5509 588.871 76.1317 589.32 75.634C589.755 75.1493 590.096 74.5992 590.343 73.9836C590.604 73.3679 590.742 72.6868 590.756 71.9402C590.771 70.6042 590.488 69.458 589.908 68.5019C589.328 67.5457 588.551 66.7598 587.58 66.1441C586.608 65.5285 585.498 65.0766 584.251 64.7884C583.003 64.4872 581.727 64.33 580.421 64.3169H571V92.9239ZM575.047 79.5439H581.466C582.321 79.5701 583.119 79.701 583.859 79.9368C584.599 80.1726 585.244 80.5066 585.795 80.9388C586.347 81.3842 586.775 81.9212 587.079 82.55C587.398 83.1787 587.551 83.8991 587.536 84.7112C587.536 85.5102 587.362 86.2241 587.014 86.8528C586.68 87.4815 586.223 88.012 585.643 88.4443C585.063 88.8765 584.396 89.2171 583.641 89.4659C582.887 89.7017 582.089 89.8262 581.248 89.8393H575.047V79.5439ZM575.047 76.5181V67.4212H580.552C581.335 67.4343 582.097 67.526 582.836 67.6963C583.591 67.8666 584.258 68.1285 584.838 68.4822C585.404 68.849 585.853 69.314 586.187 69.8772C586.535 70.4404 586.709 71.1215 586.709 71.9206C586.709 72.6672 586.535 73.3221 586.187 73.8853C585.839 74.4486 585.382 74.9201 584.816 75.3C584.251 75.6929 583.605 75.9942 582.88 76.2038C582.155 76.4002 581.415 76.505 580.661 76.5181H575.047Z" fill="white"/>
<path d="M608.206 93.3169C610.498 93.3169 612.42 92.9043 613.972 92.0791C615.539 91.2408 616.714 90.2846 617.497 89.2105L615.038 87.4815C614.299 88.346 613.37 89.0402 612.253 89.5642C611.136 90.0881 609.86 90.3501 608.424 90.3501C607.336 90.3501 606.342 90.1667 605.443 89.8C604.544 89.4332 603.775 88.9289 603.137 88.2871C602.513 87.6846 602.02 86.9903 601.657 86.2044C601.309 85.4185 601.084 84.5082 600.983 83.4734V83.3359H617.802V81.7051C617.802 80.225 617.591 78.8496 617.171 77.5791C616.764 76.3085 616.141 75.2017 615.299 74.2586C614.458 73.3286 613.399 72.6017 612.123 72.0777C610.861 71.5407 609.381 71.2722 607.684 71.2722C606.335 71.2722 605.015 71.521 603.724 72.0188C602.448 72.5165 601.309 73.2304 600.308 74.1604C599.293 75.1035 598.48 76.2561 597.871 77.6184C597.262 78.9675 596.957 80.5 596.957 82.2159V83.0411C596.957 84.5213 597.233 85.8901 597.784 87.1475C598.335 88.405 599.104 89.4921 600.091 90.409C601.077 91.3259 602.259 92.0398 603.637 92.5506C605.03 93.0615 606.553 93.3169 608.206 93.3169ZM607.684 74.2586C608.714 74.2586 609.599 74.4289 610.339 74.7695C611.093 75.11 611.717 75.5554 612.21 76.1055C612.703 76.6556 613.087 77.3106 613.363 78.0703C613.639 78.8169 613.776 79.5177 613.776 80.1726V80.3494H601.113C601.273 79.367 601.548 78.5025 601.94 77.7559C602.346 76.9962 602.839 76.3544 603.419 75.8304C604 75.3196 604.652 74.9332 605.378 74.6712C606.103 74.3962 606.872 74.2586 607.684 74.2586Z" fill="white"/>
<path d="M634.098 66.5174H630.051V71.6651H623.872V74.4748H630.051V86.0276C630.051 87.3374 630.24 88.4574 630.617 89.3874C631.009 90.3042 631.538 91.0509 632.205 91.6272C632.873 92.2166 633.656 92.6489 634.555 92.9239C635.469 93.1859 636.448 93.3169 637.493 93.3169C638.116 93.3169 638.74 93.2907 639.364 93.2383C640.002 93.1859 640.604 93.1073 641.17 93.0025C641.735 92.9108 642.258 92.7995 642.736 92.6685C643.215 92.5244 643.621 92.3607 643.955 92.1773L643.389 89.6035C643.142 89.6559 642.823 89.7214 642.432 89.8C642.055 89.8654 641.648 89.9309 641.213 89.9964C640.764 90.0619 640.307 90.1209 639.842 90.1733C639.378 90.2126 638.929 90.2322 638.493 90.2322C637.899 90.2322 637.333 90.1667 636.796 90.0357C636.274 89.9047 635.81 89.6755 635.404 89.3481C634.998 89.0337 634.679 88.608 634.446 88.071C634.214 87.5339 634.098 86.8528 634.098 86.0276V74.4748H643.063V71.6651H634.098V66.5174Z" fill="white"/>
<path d="M666.801 92.9239H671V92.6096C670.739 92.0201 670.536 91.3325 670.391 90.5466C670.246 89.7476 670.173 88.9944 670.173 88.2871V78.4043C670.173 77.2123 669.934 76.171 669.455 75.2803C668.977 74.3896 668.324 73.643 667.497 73.0405C666.656 72.451 665.662 72.0122 664.516 71.7241C663.37 71.4228 662.13 71.2722 660.795 71.2722C659.33 71.2722 658.018 71.4556 656.857 71.8223C655.711 72.1891 654.739 72.6672 653.942 73.2566C653.129 73.8591 652.506 74.5337 652.07 75.2803C651.65 76.0269 651.432 76.7866 651.418 77.5594H655.465C655.465 77.1141 655.581 76.6884 655.813 76.2823C656.059 75.8632 656.4 75.503 656.836 75.2017C657.271 74.9005 657.8 74.6581 658.424 74.4748C659.062 74.2914 659.78 74.1997 660.578 74.1997C661.434 74.1997 662.202 74.2979 662.884 74.4944C663.581 74.6909 664.168 74.9659 664.647 75.3196C665.125 75.6864 665.495 76.1252 665.756 76.636C666.017 77.1468 666.148 77.7232 666.148 78.365V80.0351H661.753C660.114 80.0351 658.627 80.1791 657.292 80.4673C655.972 80.7555 654.841 81.1877 653.898 81.764C652.955 82.3535 652.223 83.087 651.701 83.9646C651.193 84.8422 650.939 85.8639 650.939 87.0296C650.939 87.9203 651.128 88.7521 651.505 89.5249C651.896 90.2846 652.448 90.9395 653.158 91.4897C653.855 92.0529 654.703 92.4982 655.704 92.8257C656.719 93.1532 657.851 93.3169 659.098 93.3169C659.867 93.3169 660.592 93.2449 661.274 93.1008C661.956 92.9567 662.601 92.7602 663.211 92.5113C663.805 92.2625 664.349 91.9743 664.842 91.6468C665.35 91.3194 665.807 90.9723 666.213 90.6055C666.257 91.0509 666.322 91.4831 666.409 91.9023C666.511 92.3083 666.641 92.6489 666.801 92.9239ZM659.686 90.1536C658.903 90.1536 658.214 90.0619 657.619 89.8785C657.024 89.6952 656.531 89.4397 656.139 89.1123C655.748 88.7979 655.45 88.4181 655.247 87.9727C655.059 87.5274 654.964 87.0427 654.964 86.5188C654.964 85.9687 655.073 85.4775 655.291 85.0452C655.523 84.613 655.856 84.2397 656.292 83.9253C656.901 83.4799 657.72 83.1525 658.75 82.9429C659.795 82.7202 661.013 82.6089 662.406 82.6089H666.148V86.9117C665.916 87.3309 665.597 87.7369 665.191 88.1299C664.784 88.5098 664.306 88.8503 663.755 89.1516C663.189 89.4528 662.565 89.6952 661.883 89.8785C661.202 90.0619 660.469 90.1536 659.686 90.1536Z" fill="white"/>
</g>
<g filter="url(#filter1_d_2155_945)">
<path d="M226.909 115.717H215.594C214.331 115.717 213.305 115.434 212.514 114.869C211.724 114.304 211.134 113.586 210.744 112.691L205.989 100.012H177.92L173.165 112.691C172.846 113.456 172.268 114.151 171.466 114.775C170.651 115.399 169.637 115.717 168.41 115.717H157L184.503 49.3169H199.417L226.909 115.717ZM202.426 90.499L194.804 70.1787C194.344 69.1074 193.872 67.8594 193.376 66.4231C192.869 64.9868 192.397 63.4328 191.949 61.761C191.5 63.4681 191.016 65.0457 190.521 66.4938C190.014 67.9419 189.542 69.2016 189.093 70.2729L181.518 90.499H202.45H202.426Z" fill="white"/>
<path d="M254.931 60.0657V78.4199H280.287V89.2158H254.931V115.717H240.265V49.3169H285.136V60.0657H254.931Z" fill="white"/>
<path d="M357.948 115.717H346.633C345.37 115.717 344.344 115.434 343.553 114.869C342.763 114.304 342.173 113.586 341.783 112.691L337.028 100.012H308.959L304.204 112.691C303.885 113.456 303.307 114.151 302.505 114.775C301.69 115.399 300.676 115.717 299.449 115.717H288.039L315.554 49.3169H330.468L357.96 115.717H357.948ZM333.465 90.499L325.843 70.1787C325.383 69.1074 324.911 67.8594 324.415 66.4231C323.908 64.9868 323.436 63.4328 322.988 61.761C322.539 63.4681 322.056 65.0457 321.56 66.4938C321.053 67.9419 320.581 69.2016 320.132 70.2729L312.557 90.499H333.489H333.465Z" fill="white"/>
<path d="M385.983 60.0657V78.4199H411.327V89.2158H385.983V115.717H371.305V49.3169H416.188V60.0657H385.983Z" fill="white"/>
<path d="M489 115.717H477.685C476.422 115.717 475.396 115.434 474.605 114.869C473.815 114.304 473.225 113.586 472.835 112.691L468.08 100.012H440.01L435.255 112.691C434.937 113.456 434.359 114.151 433.556 114.775C432.742 115.399 431.728 115.717 430.5 115.717H419.091L446.594 49.3169H461.508L489 115.717ZM464.517 90.499L456.895 70.1787C456.435 69.1074 455.963 67.8594 455.467 66.4231C454.96 64.9868 454.488 63.4328 454.039 61.761C453.591 63.4681 453.107 65.0457 452.612 66.4938C452.104 67.9419 451.632 69.2016 451.184 70.2729L443.609 90.499H464.541H464.517Z" fill="white"/>
</g>
<defs>
<filter id="filter0_d_2155_945" x="109.173" y="0" width="662.35" height="195.914" filterUnits="userSpaceOnUse" color-interpolation-filters="sRGB">
<feFlood flood-opacity="0" result="BackgroundImageFix"/>
<feColorMatrix in="SourceAlpha" type="matrix" values="0 0 0 0 0 0 0 0 0 0 0 0 0 0 0 0 0 0 127 0" result="hardAlpha"/>
<feOffset/>
<feGaussianBlur stdDeviation="24"/>
<feColorMatrix type="matrix" values="0 0 0 0 1 0 0 0 0 1 0 0 0 0 1 0 0 0 0.58 0"/>
<feBlend mode="normal" in2="BackgroundImageFix" result="effect1_dropShadow_2155_945"/>
<feBlend mode="normal" in="SourceGraphic" in2="effect1_dropShadow_2155_945" result="shape"/>
</filter>
<filter id="filter1_d_2155_945" x="117.6" y="13.9169" width="410.8" height="145.2" filterUnits="userSpaceOnUse" color-interpolation-filters="sRGB">
<feFlood flood-opacity="0" result="BackgroundImageFix"/>
<feColorMatrix in="SourceAlpha" type="matrix" values="0 0 0 0 0 0 0 0 0 0 0 0 0 0 0 0 0 0 127 0" result="hardAlpha"/>
<feOffset dy="4"/>
<feGaussianBlur stdDeviation="19.7"/>
<feComposite in2="hardAlpha" operator="out"/>
<feColorMatrix type="matrix" values="0 0 0 0 1 0 0 0 0 1 0 0 0 0 1 0 0 0 0.54 0"/>
<feBlend mode="normal" in2="BackgroundImageFix" result="effect1_dropShadow_2155_945"/>
<feBlend mode="normal" in="SourceGraphic" in2="effect1_dropShadow_2155_945" result="shape"/>
</filter>
</defs>
</svg>
